# xmcd CD database file generated by Grip 2.94
# 
# Track frame offsets:
#       150
#       15530
#       29895
#       48352
#       63180
#       78085
#       88602
#       104675
#       117995
#       138030
#       154435
#       165102
#       183585
#       197927
#       219580
#       238217
# 
# Disc length: 3293 seconds
# 
# Revision: 3
# Processed by: cddbd v1.4b41PL3 Copyright (c) Steve Scherf et al.
# Submitted via: Grip 2.94
# 
DISCID=da0cdb10
DTITLE=Various Artist - Viva Americana
DYEAR=1900
DGENRE=
TTITLE0=Americana - Chip Taylor
TTITLE1=Has Been - Thompson Brothers
TTITLE2=Painful Days and Sleeples Nights - The Derailers
TTITLE3=Table Top Dancer - Kieran Kane
TTITLE4=I Don't Believe it Yet - Cathryn Craig
TTITLE5=This Side of Heaven - Kate Campbell
TTITLE6=Cadilac Elvis - Sid Griffin
TTITLE7=One Last Question - Jason and the Scorchers
TTITLE8=Only One Angel - Jimmy Lafave
TTITLE9=I Don't Think of Her - Bob Neuwirth
TTITLE10=List of Reasons - Dale Watson
TTITLE11=Nobody's Girl - Gretchen Peters
TTITLE12=Black Snake Moan - Jimmie Dale Gilmore
TTITLE13=Pyramid of Tears - Alejandro Escovedo
TTITLE14=Ourland - Terry Allen
TTITLE15=Tearbox - The Gourds
EXTD=
EXTT0=
EXTT1=
EXTT2=
EXTT3=
EXTT4=
EXTT5=
EXTT6=
EXTT7=
EXTT8=
EXTT9=
EXTT10=
EXTT11=
EXTT12=
EXTT13=
EXTT14=
EXTT15=
PLAYORDER=
